<svg width="107" height="39" viewBox="0 0 107 39" fill="none" xmlns="http://www.w3.org/2000/svg">
<path d="M46.6411 12V1.44563H44.9866V12H46.6411ZM53.555 12.2995C56.5929 12.2995 58.4186 10.6878 58.4186 8.1063C58.4186 5.51049 56.5929 3.88455 53.555 3.88455C50.5313 3.88455 48.6914 5.51049 48.6914 8.1063C48.6914 10.6878 50.5313 12.2995 53.555 12.2995ZM53.555 10.9018C51.7151 10.9018 50.3316 9.9747 50.3316 8.1063C50.3316 6.20936 51.7151 5.28229 53.555 5.28229C55.4091 5.28229 56.7926 6.20936 56.7926 8.1063C56.7926 9.9747 55.4091 10.9018 53.555 10.9018ZM68.8127 4.18406H67.0299L63.9349 10.3883L60.8399 4.18406H59.0142L63.0363 12H64.8049L68.8127 4.18406ZM71.0431 8.46286H78.802C78.8305 8.37729 78.8448 8.27745 78.8448 8.09203C78.8448 5.3536 77.0192 3.88455 74.2094 3.88455C71.2 3.88455 69.4029 5.51049 69.4029 8.1063C69.4029 10.6736 71.2 12.2995 74.3235 12.2995C76.1491 12.2995 77.5041 11.8574 78.5738 10.9018L77.6039 9.8606C76.7482 10.6165 75.8496 10.9874 74.4091 10.9874C72.4409 10.9874 71.2 10.1601 71.0431 8.46286ZM74.2237 5.19671C75.7641 5.19671 76.8765 5.83853 77.2331 7.2648L71.1144 7.27906C71.4282 5.89558 72.5835 5.19671 74.2237 5.19671ZM50.2067 25.2853C52.7455 25.2853 54.4285 23.6165 54.4285 21.092C54.4285 18.5533 52.7455 16.8988 50.2067 16.8988C48.538 16.8988 47.2829 17.5977 46.6125 18.5818V17.1841H44.9438V27.8525H46.6125V23.6023C47.2829 24.5864 48.538 25.2853 50.2067 25.2853ZM49.7788 18.3108C51.7186 18.3108 52.8025 19.3092 52.8025 21.092C52.8025 22.8749 51.7186 23.859 49.7788 23.859C48.4809 23.859 47.3542 23.4168 46.6125 22.2616V19.9225C47.3542 18.7672 48.4809 18.3108 49.7788 18.3108ZM60.756 25.2995C63.7939 25.2995 65.6195 23.6878 65.6195 21.1063C65.6195 18.5105 63.7939 16.8845 60.756 16.8845C57.7323 16.8845 55.8924 18.5105 55.8924 21.1063C55.8924 23.6878 57.7323 25.2995 60.756 25.2995ZM60.756 23.9018C58.9161 23.9018 57.5326 22.9747 57.5326 21.1063C57.5326 19.2094 58.9161 18.2823 60.756 18.2823C62.6101 18.2823 63.9936 19.2094 63.9936 21.1063C63.9936 22.9747 62.6101 23.9018 60.756 23.9018ZM78.422 17.1841L76.2826 23.2029L74.0577 17.1841H72.4888L70.2638 23.2029L68.1244 17.1841H66.4414L69.3225 25H70.9912L73.2732 18.8813L75.5267 25H77.1812L80.0622 17.1841H78.422ZM82.5201 21.4629H90.279C90.3075 21.3773 90.3218 21.2774 90.3218 21.092C90.3218 18.3536 88.4962 16.8845 85.6864 16.8845C82.677 16.8845 80.8799 18.5105 80.8799 21.1063C80.8799 23.6736 82.677 25.2995 85.8005 25.2995C87.6261 25.2995 88.9811 24.8574 90.0508 23.9018L89.0809 22.8606C88.2252 23.6165 87.3266 23.9874 85.8861 23.9874C83.9178 23.9874 82.677 23.1601 82.5201 21.4629ZM85.7007 18.1967C87.241 18.1967 88.3535 18.8385 88.7101 20.2648L82.5914 20.2791C82.9052 18.8956 84.0605 18.1967 85.7007 18.1967ZM93.9272 25V20.6784C94.4549 19.2094 95.8812 18.482 97.6212 18.482V17.0272C96.0096 17.0272 94.5548 17.7118 93.9272 18.9669V17.1841H92.2585V25H93.9272ZM56.6677 29.8988C55.0132 29.8988 53.6725 30.7546 53.102 32.0667C52.7027 30.7831 51.7043 29.8988 49.95 29.8988C48.4524 29.8988 47.2258 30.5977 46.6125 31.6959V30.1841H44.9438V38H46.6125V33.1507C47.1973 31.9526 48.1386 31.2823 49.4508 31.2823C50.9769 31.2823 51.6615 32.1666 51.6615 33.6071V38H53.316L53.3017 36.8305V33.5073V33.2077C53.8865 31.9669 54.8563 31.2823 56.1685 31.2823C57.6946 31.2823 58.3792 32.1666 58.3792 33.6071V38H60.0194V33.5073C60.0194 31.482 59.021 29.8988 56.6677 29.8988ZM66.4005 29.8988C64.9885 29.8988 63.4909 30.2839 62.5211 30.8687L63.1201 31.9954C64.0186 31.4677 64.9315 31.211 66.0867 31.211C68.0978 31.211 69.1247 31.9669 69.1247 33.6499V34.2204C68.5114 33.4645 67.3133 32.8227 65.7159 32.8227C64.0329 32.8227 61.7937 33.5073 61.7937 35.5468C61.7937 37.6006 64.0329 38.2853 65.7159 38.2853C67.3133 38.2853 68.5114 37.6434 69.1247 36.8875V36.9018C69.1247 37.2726 69.2245 37.6577 69.4242 38H71.15C70.8932 37.5436 70.7934 37.0729 70.7934 36.4882V33.6499C70.7934 31.1967 69.1247 29.8988 66.4005 29.8988ZM69.1532 35.6752C68.5256 36.7449 67.1992 37.0872 66.0297 37.0872C64.9885 37.0872 63.4339 36.8162 63.4339 35.5468C63.4339 34.2917 64.9885 34.0207 66.0297 34.0207C67.1992 34.0207 68.5256 34.3488 69.1532 35.4327V35.6752ZM74.9428 38V33.6784C75.4706 32.2094 76.8968 31.482 78.6369 31.482V30.0272C77.0252 30.0272 75.5704 30.7118 74.9428 31.9669V30.1841H73.2741V38H74.9428ZM87.0575 38H88.9687L85.1463 33.2791L88.7405 30.1841H86.6867L81.8374 34.306V27.4456H80.1687V38H81.8374V35.9177L83.934 34.2061L87.0575 38ZM90.9885 34.4629H98.7474C98.776 34.3773 98.7902 34.2774 98.7902 34.092C98.7902 31.3536 96.9646 29.8845 94.1549 29.8845C91.1454 29.8845 89.3483 31.5105 89.3483 34.1063C89.3483 36.6736 91.1454 38.2995 94.269 38.2995C96.0946 38.2995 97.4495 37.8574 98.5192 36.9018L97.5494 35.8606C96.6936 36.6165 95.7951 36.9874 94.3545 36.9874C92.3863 36.9874 91.1454 36.1601 90.9885 34.4629ZM94.1691 31.1967C95.7095 31.1967 96.822 31.8385 97.1785 33.2648L91.0599 33.2791C91.3736 31.8956 92.5289 31.1967 94.1691 31.1967ZM105.808 36.4026C105.337 36.6593 104.838 36.8733 104.253 36.8733C103.44 36.8733 102.77 36.4454 102.77 35.5753V31.5105H106.179V30.1841H102.77V28.3727H101.101V30.1841H99.5893V31.5105H101.101V35.8463C101.101 37.4723 102.313 38.2853 103.84 38.2853C104.738 38.2853 105.608 37.9857 106.25 37.5579L105.808 36.4026Z" fill="black"/>
<path d="M26.5863 14.1138L26.5867 14.1142C26.9905 14.5808 27.192 15.1891 27.1447 15.8051C27.0974 16.4212 26.8054 16.9914 26.3359 17.3912C25.8667 17.7908 25.2583 17.988 24.6445 17.9417C24.0312 17.8953 23.4596 17.6092 23.0561 17.1436L26.5863 14.1138ZM26.5863 14.1138L21.1287 7.81418C21.7999 6.9959 22.6294 6.31467 23.5716 5.81236C24.7367 5.19123 26.038 4.86286 27.3615 4.85646L26.5863 14.1138ZM14.7627 7.59123L14.761 7.58927C14.6133 7.41859 14.4769 7.25639 14.3478 7.1029C13.7718 6.41828 13.3416 5.90692 12.7145 5.59022C11.6862 5.10357 10.5581 4.85863 9.41815 4.87483L9.41005 4.87495L9.41005 4.87492C6.77344 4.89104 4.42887 6.34612 2.87394 8.57464C1.31758 10.8052 0.611143 13.7363 1.21464 16.549C1.51078 17.9214 2.16495 19.2067 2.99598 20.4774C3.56165 21.3423 4.17282 22.1499 4.79323 22.9698C5.10206 23.3779 5.41318 23.789 5.72212 24.2117C7.93531 27.2351 12.2941 31.5805 15.4613 34.5958L15.4668 34.601L15.4722 34.6063C16.2457 35.3655 17.2915 35.7926 18.3829 35.7926C19.4744 35.7926 20.5202 35.3655 21.2937 34.6063L21.2991 34.601L21.3046 34.5958C24.4722 31.5801 28.8334 27.2353 31.0433 24.2124C31.0433 24.2123 31.0433 24.2123 31.0434 24.2123L14.7627 7.59123ZM14.7627 7.59123L17.7096 10.9799C17.7097 10.98 17.7098 10.98 17.7099 10.9801M14.7627 7.59123L17.7099 10.9801M17.7099 10.9801C19.4909 13.0346 21.2729 15.089 23.056 17.1435L17.7099 10.9801Z" stroke="black" strokeWidth="2"/>
</svg>
