<svg width="194" height="72" viewBox="0 0 194 72" fill="none" xmlns="http://www.w3.org/2000/svg">
<path d="M84.3959 21V1.90194H81.4021V21H84.3959ZM96.9066 21.542C102.404 21.542 105.707 18.6256 105.707 13.9544C105.707 9.25728 102.404 6.31514 96.9066 6.31514C91.4352 6.31514 88.106 9.25728 88.106 13.9544C88.106 18.6256 91.4352 21.542 96.9066 21.542ZM96.9066 19.0128C93.5773 19.0128 91.0739 17.3352 91.0739 13.9544C91.0739 10.5219 93.5773 8.84435 96.9066 8.84435C100.262 8.84435 102.765 10.5219 102.765 13.9544C102.765 17.3352 100.262 19.0128 96.9066 19.0128ZM124.515 6.85711H121.289L115.689 18.0837L110.089 6.85711H106.785L114.063 21H117.263L124.515 6.85711ZM128.551 14.5996H142.591C142.643 14.4447 142.668 14.2641 142.668 13.9286C142.668 8.97339 139.365 6.31514 134.281 6.31514C128.835 6.31514 125.583 9.25728 125.583 13.9544C125.583 18.5998 128.835 21.542 134.487 21.542C137.791 21.542 140.242 20.7419 142.178 19.0128L140.423 17.1288C138.875 18.4966 137.249 19.1676 134.642 19.1676C131.08 19.1676 128.835 17.6707 128.551 14.5996ZM134.306 8.6895C137.094 8.6895 139.107 9.85086 139.752 12.4317L128.68 12.4575C129.248 9.9541 131.339 8.6895 134.306 8.6895ZM90.8479 45.5162C95.4418 45.5162 98.4871 42.4966 98.4871 37.9286C98.4871 33.3347 95.4418 30.341 90.8479 30.341C87.8284 30.341 85.5572 31.6056 84.3442 33.3863V30.8571H81.3247V50.1616H84.3442V42.4708C85.5572 44.2516 87.8284 45.5162 90.8479 45.5162ZM90.0737 32.896C93.5836 32.896 95.545 34.7025 95.545 37.9286C95.545 41.1546 93.5836 42.9353 90.0737 42.9353C87.7251 42.9353 85.6863 42.1353 84.3442 40.0448V35.8123C85.6863 33.7218 87.7251 32.896 90.0737 32.896ZM109.937 45.542C115.434 45.542 118.737 42.6256 118.737 37.9544C118.737 33.2573 115.434 30.3151 109.937 30.3151C104.465 30.3151 101.136 33.2573 101.136 37.9544C101.136 42.6256 104.465 45.542 109.937 45.542ZM109.937 43.0128C106.607 43.0128 104.104 41.3352 104.104 37.9544C104.104 34.5219 106.607 32.8443 109.937 32.8443C113.292 32.8443 115.795 34.5219 115.795 37.9544C115.795 41.3352 113.292 43.0128 109.937 43.0128ZM141.903 30.8571L138.032 41.7482L134.006 30.8571H131.167L127.141 41.7482L123.27 30.8571H120.224L125.438 45H128.457L132.587 33.9283L136.664 45H139.658L144.871 30.8571H141.903ZM149.319 38.5996H163.358C163.41 38.4447 163.436 38.2641 163.436 37.9286C163.436 32.9734 160.132 30.3151 155.048 30.3151C149.603 30.3151 146.351 33.2573 146.351 37.9544C146.351 42.5998 149.603 45.542 155.255 45.542C158.558 45.542 161.01 44.7419 162.945 43.0128L161.191 41.1288C159.642 42.4966 158.016 43.1676 155.409 43.1676C151.848 43.1676 149.603 41.6707 149.319 38.5996ZM155.074 32.6895C157.861 32.6895 159.874 33.8509 160.52 36.4317L149.448 36.4575C150.016 33.9541 152.106 32.6895 155.074 32.6895ZM169.96 45V37.1801C170.915 34.5219 173.496 33.2057 176.644 33.2057V30.5732C173.728 30.5732 171.095 31.812 169.96 34.0831V30.8571H166.94V45H169.96ZM102.539 54.341C99.5453 54.341 97.1193 55.8894 96.087 58.2638C95.3643 55.9411 93.5578 54.341 90.3834 54.341C87.6735 54.341 85.454 55.6056 84.3442 57.5928V54.8571H81.3247V69H84.3442V60.2252C85.4024 58.0573 87.1057 56.8443 89.4801 56.8443C92.2416 56.8443 93.4803 58.4445 93.4803 61.0511V69H96.4741L96.4483 66.8837V60.8704V60.3284C97.5064 58.0831 99.2614 56.8443 101.636 56.8443C104.397 56.8443 105.636 58.4445 105.636 61.0511V69H108.604V60.8704C108.604 57.2057 106.797 54.341 102.539 54.341ZM120.15 54.341C117.595 54.341 114.886 55.0378 113.131 56.0959L114.215 58.1348C115.841 57.1799 117.492 56.7153 119.583 56.7153C123.222 56.7153 125.08 58.0831 125.08 61.1285V62.1608C123.97 60.793 121.802 59.6316 118.912 59.6316C115.866 59.6316 111.814 60.8704 111.814 64.561C111.814 68.2774 115.866 69.5162 118.912 69.5162C121.802 69.5162 123.97 68.3548 125.08 66.987V67.0128C125.08 67.6838 125.261 68.3806 125.622 69H128.745C128.28 68.1741 128.099 67.3225 128.099 66.2643V61.1285C128.099 56.6895 125.08 54.341 120.15 54.341ZM125.131 64.7933C123.996 66.7289 121.596 67.3483 119.479 67.3483C117.595 67.3483 114.782 66.8579 114.782 64.561C114.782 62.2899 117.595 61.7995 119.479 61.7995C121.596 61.7995 123.996 62.3931 125.131 64.3545V64.7933ZM135.608 69V61.1801C136.563 58.5219 139.143 57.2057 142.292 57.2057V54.5732C139.376 54.5732 136.743 55.812 135.608 58.0831V54.8571H132.588V69H135.608ZM157.529 69H160.987L154.071 60.4575L160.575 54.8571H156.858L148.083 62.3157V49.9019H145.064V69H148.083V65.232L151.877 62.135L157.529 69ZM164.642 62.5996H178.682C178.734 62.4447 178.759 62.2641 178.759 61.9286C178.759 56.9734 175.456 54.3151 170.372 54.3151C164.926 54.3151 161.674 57.2573 161.674 61.9544C161.674 66.5998 164.926 69.542 170.578 69.542C173.882 69.542 176.333 68.7419 178.269 67.0128L176.514 65.1288C174.966 66.4966 173.34 67.1676 170.733 67.1676C167.172 67.1676 164.926 65.6707 164.642 62.5996ZM170.398 56.6895C173.185 56.6895 175.198 57.8509 175.843 60.4317L164.771 60.4575C165.339 57.9541 167.43 56.6895 170.398 56.6895ZM191.458 66.1095C190.606 66.574 189.703 66.9612 188.645 66.9612C187.174 66.9612 185.961 66.1869 185.961 64.6126V57.2573H192.129V54.8571H185.961V51.5795H182.941V54.8571H180.205V57.2573H182.941V65.103C182.941 68.0451 185.135 69.5162 187.896 69.5162C189.522 69.5162 191.096 68.9742 192.258 68.1999L191.458 66.1095Z" fill="white"/>
<path d="M48.1077 25.5386L48.1084 25.5394C48.8391 26.3837 49.2037 27.4843 49.1181 28.5991C49.0325 29.7138 48.5042 30.7456 47.6547 31.4691C46.8057 32.1922 45.7047 32.549 44.5941 32.4651C43.4842 32.3813 42.45 31.8636 41.7199 31.021L48.1077 25.5386ZM48.1077 25.5386L38.2323 14.1395C39.4468 12.6588 40.9478 11.4262 42.6527 10.5172C44.7609 9.39331 47.1156 8.79913 49.5104 8.78754C54.2793 8.81491 58.5174 11.4462 61.3286 15.4811C64.1441 19.5224 65.4224 24.8385 64.3293 29.9471L64.3292 29.9476C63.796 32.4432 62.6129 34.7679 61.1093 37.0626C60.0942 38.6119 59.0003 40.0545 57.8883 41.521C57.3184 42.2726 56.7438 43.0303 56.1726 43.812C52.1739 49.2819 44.2822 57.1439 38.5505 62.6007L38.5406 62.6102L38.5308 62.6198C37.1311 63.9934 35.2387 64.7663 33.2638 64.7663C31.2889 64.7663 29.3965 63.9934 27.9968 62.6198L27.987 62.6102L27.9771 62.6007C22.2465 57.1449 14.36 49.2827 10.355 43.812C9.7957 43.0466 9.23245 42.3023 8.67333 41.5635C7.5507 40.08 6.44479 38.6186 5.42121 37.0535C3.91743 34.7541 2.73371 32.4283 2.19786 29.9451C1.10588 24.8556 2.38417 19.5517 5.20039 15.5156C8.01402 11.4831 12.2565 8.85013 17.0274 8.82094L17.0348 8.8209L17.0421 8.82079C19.1049 8.79147 21.1461 9.23469 23.0068 10.1153C24.1416 10.6883 24.92 11.6136 25.9622 12.8525C26.1958 13.1302 26.4428 13.4237 26.7099 13.7325L26.713 13.7361M48.1077 25.5386L26.713 13.7361M26.713 13.7361L32.0455 19.8678M26.713 13.7361L32.0455 19.8678M32.0455 19.8678C35.2683 23.5854 38.493 27.3031 41.7196 31.0207L32.0455 19.8678Z" stroke="white" strokeWidth="3.61899"/>
</svg>
