<svg width="30" height="28" viewBox="0 0 30 28" fill="none" xmlns="http://www.w3.org/2000/svg">
<path d="M27.9644 0.848633L16.8203 9.09446L18.8927 4.23493L27.9644 0.848633Z" fill="#E17726" stroke="#E17726" strokeWidth="0.212121" strokeLinecap="round" strokeLinejoin="round"/>
<path d="M2.25879 0.848633L13.3037 9.17142L11.3306 4.23492L2.25879 0.848633Z" fill="#E27625" stroke="#E27625" strokeWidth="0.212121" strokeLinecap="round" strokeLinejoin="round"/>
<path d="M23.9514 19.9678L20.9863 24.4975L27.3355 26.2456L29.1543 20.0668L23.9514 19.9678Z" fill="#E27625" stroke="#E27625" strokeWidth="0.212121" strokeLinecap="round" strokeLinejoin="round"/>
<path d="M1.08008 20.0668L2.88781 26.2456L9.22595 24.4975L6.27181 19.9678L1.08008 20.0668Z" fill="#E27625" stroke="#E27625" strokeWidth="0.212121" strokeLinecap="round" strokeLinejoin="round"/>
<path d="M8.88373 12.3155L7.12012 14.9762L13.4031 15.2621L13.1937 8.50049L8.88373 12.3155Z" fill="#E27625" stroke="#E27625" strokeWidth="0.212121" strokeLinecap="round" strokeLinejoin="round"/>
<path d="M21.3396 12.3158L16.9636 8.42383L16.8203 15.2624L23.1033 14.9765L21.3396 12.3158Z" fill="#E27625" stroke="#E27625" strokeWidth="0.212121" strokeLinecap="round" strokeLinejoin="round"/>
<path d="M9.22559 24.4976L13.0284 22.6616L9.7547 20.1108L9.22559 24.4976Z" fill="#E27625" stroke="#E27625" strokeWidth="0.212121" strokeLinecap="round" strokeLinejoin="round"/>
<path d="M17.1953 22.6616L20.9871 24.4976L20.469 20.1108L17.1953 22.6616Z" fill="#E27625" stroke="#E27625" strokeWidth="0.212121" strokeLinecap="round" strokeLinejoin="round"/>
<path d="M20.9871 24.4977L17.1953 22.6616L17.5039 25.1243L17.4708 26.1688L20.9871 24.4977Z" fill="#D5BFB2" stroke="#D5BFB2" strokeWidth="0.212121" strokeLinecap="round" strokeLinejoin="round"/>
<path d="M9.22559 24.4977L12.7529 26.1688L12.7308 25.1243L13.0284 22.6616L9.22559 24.4977Z" fill="#D5BFB2" stroke="#D5BFB2" strokeWidth="0.212121" strokeLinecap="round" strokeLinejoin="round"/>
<path d="M12.8186 18.4836L9.66602 17.5601L11.8926 16.5376L12.8186 18.4836Z" fill="#233447" stroke="#233447" strokeWidth="0.212121" strokeLinecap="round" strokeLinejoin="round"/>
<path d="M17.4043 18.4836L18.3302 16.5376L20.5679 17.5601L17.4043 18.4836Z" fill="#233447" stroke="#233447" strokeWidth="0.212121" strokeLinecap="round" strokeLinejoin="round"/>
<path d="M9.22557 24.4975L9.77675 19.9678L6.27148 20.0668L9.22557 24.4975Z" fill="#CC6228" stroke="#CC6228" strokeWidth="0.212121" strokeLinecap="round" strokeLinejoin="round"/>
<path d="M20.4473 19.9678L20.9874 24.4975L23.9525 20.0668L20.4473 19.9678Z" fill="#CC6228" stroke="#CC6228" strokeWidth="0.212121" strokeLinecap="round" strokeLinejoin="round"/>
<path d="M23.1033 14.9761L16.8203 15.2619L17.4045 18.4834L18.3304 16.5373L20.5681 17.5598L23.1033 14.9761Z" fill="#CC6228" stroke="#CC6228" strokeWidth="0.212121" strokeLinecap="round" strokeLinejoin="round"/>
<path d="M9.66638 17.5598L11.893 16.5373L12.8189 18.4834L13.4031 15.2619L7.12012 14.9761L9.66638 17.5598Z" fill="#CC6228" stroke="#CC6228" strokeWidth="0.212121" strokeLinecap="round" strokeLinejoin="round"/>
<path d="M7.12012 14.9761L9.75459 20.1105L9.66634 17.5598L7.12012 14.9761Z" fill="#E27525" stroke="#E27525" strokeWidth="0.212121" strokeLinecap="round" strokeLinejoin="round"/>
<path d="M20.5689 17.5598L20.4697 20.1105L23.1042 14.9761L20.5689 17.5598Z" fill="#E27525" stroke="#E27525" strokeWidth="0.212121" strokeLinecap="round" strokeLinejoin="round"/>
<path d="M13.4036 15.2622L12.8193 18.4837L13.5579 22.2877L13.7232 17.2742L13.4036 15.2622Z" fill="#E27525" stroke="#E27525" strokeWidth="0.212121" strokeLinecap="round" strokeLinejoin="round"/>
<path d="M16.8204 15.2622L16.5117 17.2633L16.6661 22.2877L17.4046 18.4837L16.8204 15.2622Z" fill="#E27525" stroke="#E27525" strokeWidth="0.212121" strokeLinecap="round" strokeLinejoin="round"/>
<path d="M17.4045 18.4836L16.666 22.2876L17.1951 22.6615L20.4689 20.1108L20.5681 17.5601L17.4045 18.4836Z" fill="#F5841F" stroke="#F5841F" strokeWidth="0.212121" strokeLinecap="round" strokeLinejoin="round"/>
<path d="M9.66602 17.5601L9.75426 20.1108L13.028 22.6615L13.5571 22.2876L12.8186 18.4836L9.66602 17.5601Z" fill="#F5841F" stroke="#F5841F" strokeWidth="0.212121" strokeLinecap="round" strokeLinejoin="round"/>
<path d="M17.4707 26.1687L17.5037 25.1242L17.2171 24.8823H13.0064L12.7308 25.1242L12.7529 26.1687L9.22559 24.4976L10.4601 25.509L12.9623 27.2352H17.2501L19.7633 25.509L20.9869 24.4976L17.4707 26.1687Z" fill="#C0AC9D" stroke="#C0AC9D" strokeWidth="0.212121" strokeLinecap="round" strokeLinejoin="round"/>
<path d="M17.1957 22.6614L16.6665 22.2876H13.5581L13.0291 22.6614L12.7314 25.1242L13.007 24.8823H17.2177L17.5043 25.1242L17.1957 22.6614Z" fill="#161616" stroke="#161616" strokeWidth="0.212121" strokeLinecap="round" strokeLinejoin="round"/>
<path d="M28.4385 9.63317L29.3755 5.08149L27.9645 0.848633L17.1953 8.81964L21.3398 12.3158L27.1929 14.02L28.4826 12.5138L27.9205 12.1069L28.8133 11.2934L28.1299 10.7656L29.0228 10.084L28.4385 9.63317Z" fill="#763E1A" stroke="#763E1A" strokeWidth="0.212121" strokeLinecap="round" strokeLinejoin="round"/>
<path d="M0.848633 5.08149L1.79659 9.63317L1.19034 10.084L2.09421 10.7656L1.4108 11.2934L2.30364 12.1069L1.74148 12.5138L3.03115 14.02L8.88429 12.3158L13.0288 8.81964L2.25955 0.848633L0.848633 5.08149Z" fill="#763E1A" stroke="#763E1A" strokeWidth="0.212121" strokeLinecap="round" strokeLinejoin="round"/>
<path d="M27.1936 14.0195L21.3405 12.3154L23.1042 14.9761L20.4697 20.1105L23.9529 20.0665H29.1557L27.1936 14.0195Z" fill="#F5841F" stroke="#F5841F" strokeWidth="0.212121" strokeLinecap="round" strokeLinejoin="round"/>
<path d="M8.88418 12.3154L3.03111 14.0195L1.08008 20.0665H6.27181L9.75498 20.1105L7.12057 14.9761L8.88418 12.3154Z" fill="#F5841F" stroke="#F5841F" strokeWidth="0.212121" strokeLinecap="round" strokeLinejoin="round"/>
<path d="M16.8204 15.2623L17.1952 8.81951L18.8927 4.23486H11.3311L13.0285 8.81951L13.4033 15.2623L13.5466 17.2853L13.5576 22.2878H16.6661L16.6771 17.2853L16.8204 15.2623Z" fill="#F5841F" stroke="#F5841F" strokeWidth="0.212121" strokeLinecap="round" strokeLinejoin="round"/>
</svg>
