<svg width="24" height="24" viewBox="0 0 24 24" fill="none" xmlns="http://www.w3.org/2000/svg">
<path d="M20.2415 5.18576C18.7257 4.49024 17.1003 3.97782 15.4008 3.68434C15.3698 3.67867 15.3389 3.69283 15.3229 3.72114C15.1139 4.09295 14.8823 4.578 14.7202 4.95926C12.8922 4.68559 11.0737 4.68559 9.28321 4.95926C9.12102 4.56953 8.88106 4.09295 8.67107 3.72114C8.65513 3.69377 8.62421 3.67962 8.59326 3.68434C6.89468 3.97688 5.26922 4.48931 3.75248 5.18576C3.73935 5.19142 3.7281 5.20086 3.72063 5.21312C0.637468 9.8193 -0.207138 14.3123 0.207197 18.7495C0.209072 18.7712 0.221258 18.792 0.238132 18.8052C2.27231 20.299 4.24276 21.2059 6.17662 21.8071C6.20757 21.8165 6.24037 21.8052 6.26006 21.7797C6.71752 21.155 7.1253 20.4963 7.47493 19.8036C7.49556 19.763 7.47587 19.7149 7.4337 19.6989C6.78689 19.4535 6.171 19.1543 5.57855 18.8146C5.53169 18.7873 5.52794 18.7202 5.57105 18.6881C5.69572 18.5947 5.82043 18.4975 5.93947 18.3994C5.96101 18.3815 5.99102 18.3777 6.01634 18.389C9.90845 20.166 14.1221 20.166 17.9683 18.389C17.9936 18.3767 18.0236 18.3805 18.0461 18.3984C18.1652 18.4966 18.2899 18.5947 18.4155 18.6881C18.4586 18.7202 18.4558 18.7873 18.4089 18.8146C17.8165 19.1609 17.2006 19.4535 16.5528 19.6979C16.5107 19.714 16.4919 19.763 16.5125 19.8036C16.8697 20.4953 17.2774 21.154 17.7265 21.7788C17.7452 21.8052 17.7789 21.8165 17.8099 21.8071C19.7531 21.2059 21.7236 20.299 23.7578 18.8052C23.7756 18.792 23.7868 18.7721 23.7887 18.7504C24.2846 13.6205 22.9581 9.16438 20.2725 5.21406C20.2659 5.20086 20.2547 5.19142 20.2415 5.18576ZM8.05615 16.0477C6.88436 16.0477 5.91884 14.9719 5.91884 13.6507C5.91884 12.3295 6.86564 11.2537 8.05615 11.2537C9.25601 11.2537 10.2122 12.339 10.1934 13.6507C10.1934 14.9719 9.24663 16.0477 8.05615 16.0477ZM15.9585 16.0477C14.7867 16.0477 13.8212 14.9719 13.8212 13.6507C13.8212 12.3295 14.768 11.2537 15.9585 11.2537C17.1584 11.2537 18.1145 12.339 18.0958 13.6507C18.0958 14.9719 17.1584 16.0477 15.9585 16.0477Z" fill="#C8C8C8"/>
</svg>
