<svg width="24" height="24" viewBox="0 0 24 24" fill="none" xmlns="http://www.w3.org/2000/svg">
<path fillRule="evenodd" clipRule="evenodd" d="M2.03719 11.2933C8.23867 8.59144 12.374 6.81019 14.4431 5.94958C20.3508 3.49236 21.5784 3.06551 22.3785 3.05142C22.5545 3.04832 22.9479 3.09193 23.2028 3.29875C23.418 3.47337 23.4772 3.70927 23.5056 3.87484C23.5339 4.04041 23.5692 4.41758 23.5411 4.71228C23.221 8.07603 21.8357 16.2389 21.131 20.0064C20.8328 21.6005 20.2456 22.1351 19.6772 22.1874C18.4418 22.301 17.5038 21.371 16.3073 20.5866C14.435 19.3593 13.3773 18.5953 11.5599 17.3977C9.45956 16.0136 10.8211 15.2529 12.0181 14.0097C12.3313 13.6844 17.7743 8.73353 17.8797 8.28441C17.8928 8.22824 17.9051 8.01887 17.7807 7.90831C17.6563 7.79775 17.4727 7.83556 17.3402 7.86563C17.1525 7.90825 14.1614 9.88519 8.3672 13.7965C7.51822 14.3794 6.74923 14.6635 6.06024 14.6486C5.30069 14.6322 3.83961 14.2191 2.75346 13.8661C1.42124 13.433 0.362418 13.2041 0.454617 12.4686C0.50264 12.0855 1.03016 11.6938 2.03719 11.2933Z" fill="#C8C8C8"/>
</svg>
