<svg width="24" height="24" viewBox="0 0 24 24" fill="none" xmlns="http://www.w3.org/2000/svg">
<path d="M21.0574 7.18066C21.0667 7.39186 21.0667 7.59346 21.0667 7.80466C21.0759 14.2079 16.3715 21.5999 7.76822 21.5999C5.23077 21.5999 2.73962 20.8415 0.600388 19.4207C0.970818 19.4687 1.34125 19.4879 1.71168 19.4879C3.81387 19.4879 5.8605 18.7583 7.51818 17.4047C5.51785 17.3663 3.75831 16.0127 3.1471 14.0351C3.85092 14.1791 4.57325 14.1503 5.25855 13.9487C3.08227 13.5071 1.5172 11.5199 1.50794 9.20626C1.50794 9.18706 1.50794 9.16786 1.50794 9.14866C2.1562 9.52306 2.8878 9.73426 3.62866 9.75346C1.58203 8.33266 0.943036 5.50065 2.18398 3.28304C4.56399 6.31665 8.06456 8.15026 11.8244 8.35186C11.4447 6.67185 11.9633 4.90545 13.1765 3.71505C15.0564 1.88144 18.0199 1.97744 19.798 3.92625C20.8444 3.71505 21.8538 3.31184 22.7707 2.74544C22.4187 3.86865 21.6871 4.81905 20.7148 5.42385C21.6408 5.30865 22.5484 5.04945 23.4004 4.66545C22.7707 5.64465 21.9742 6.48945 21.0574 7.18066Z" fill="#C8C8C8"/>
</svg>
