<svg width="30" height="29" viewBox="0 0 30 29" fill="none" xmlns="http://www.w3.org/2000/svg">
<path d="M15 2.4165C8.33724 2.4165 2.91666 7.83709 2.91666 14.4998C2.91666 21.1626 8.33724 26.5832 15 26.5832C21.6627 26.5832 27.0833 21.1626 27.0833 14.4998C27.0833 7.83709 21.6627 2.4165 15 2.4165ZM5.33332 14.4998C5.33332 13.4135 5.52182 12.3708 5.85412 11.3956L7.74999 13.2915L10.1667 15.7082V18.1248L12.5833 20.5415L13.7917 21.7498V24.0831C9.03203 23.485 5.33332 19.4202 5.33332 14.4998ZM22.6487 20.388C21.8597 19.7525 20.6634 19.3332 19.8333 19.3332V18.1248C19.8333 17.4839 19.5787 16.8692 19.1255 16.416C18.6723 15.9628 18.0576 15.7082 17.4167 15.7082H12.5833V12.0832C13.2243 12.0832 13.839 11.8286 14.2922 11.3753C14.7454 10.9221 15 10.3074 15 9.6665V8.45817H16.2083C16.8493 8.45817 17.464 8.20356 17.9172 7.75035C18.3704 7.29713 18.625 6.68244 18.625 6.0415V5.54488C22.163 6.98159 24.6667 10.4519 24.6667 14.4998C24.6664 16.6322 23.9565 18.7038 22.6487 20.388Z" fill="#C8C8C8"/>
</svg>
